M48
; DRILL file {KiCad 9.0.0} date 2025-03-15T20:57:12+0100
; FORMAT={-:-/ absolute / inch / decimal}
; #@! TF.CreationDate,2025-03-15T20:57:12+01:00
; #@! TF.GenerationSoftware,Kicad,Pcbnew,9.0.0
; #@! TF.FileFunction,Plated,1,2,PTH
FMAT,2
INCH
; #@! TA.AperFunction,Plated,PTH,ViaDrill
T1C0.0118
; #@! TA.AperFunction,Plated,PTH,ComponentDrill
T2C0.0250
; #@! TA.AperFunction,Plated,PTH,ComponentDrill
T3C0.0689
%
G90
G05
T1
X5.9449Y-3.1496
X5.9449Y-3.2972
X5.9449Y-3.4941
X5.9449Y-3.6693
X5.9449Y-3.8976
X6.0335Y-1.7717
X6.0433Y-2.1752
X6.0728Y-1.6142
X6.0728Y-1.737
X6.0827Y-2.9232
X6.0925Y-2.1161
X6.0928Y-1.6535
X6.0928Y-1.697
X6.1024Y-3.8976
X6.122Y-3.7205
X6.122Y-3.7598
X6.122Y-3.7992
X6.1319Y-2.9626
X6.1417Y-2.8346
X6.1516Y-1.8307
X6.1516Y-1.9193
X6.1516Y-2.2736
X6.1713Y-3.0118
X6.1855Y-3.177
X6.1909Y-2.8839
X6.2008Y-2.2343
X6.2402Y-2.9331
X6.25Y-1.6142
X6.25Y-2.372
X6.2598Y-1.8307
X6.2598Y-1.9193
X6.2598Y-3.1004
X6.2992Y-2.3228
X6.2992Y-2.9921
X6.3091Y-2.6772
X6.3189Y-1.7618
X6.3189Y-2.0761
X6.3484Y-2.4705
X6.3484Y-3.1004
X6.378Y-1.7126
X6.378Y-2.126
X6.3976Y-2.4311
X6.4272Y-2.2343
X6.4272Y-2.5492
X6.4355Y-3.0015
X6.4469Y-1.6142
X6.4469Y-1.9094
X6.4469Y-3.1004
X6.4665Y-2.1161
X6.4764Y-2.9921
X6.4961Y-2.9134
X6.5005Y-2.862
X6.5059Y-2.2343
X6.5059Y-2.4902
X6.5255Y-2.707
X6.5453Y-1.7913
X6.5453Y-1.9291
X6.5453Y-2.9921
X6.5453Y-3.1004
X6.5655Y-2.9528
X6.5748Y-2.5787
X6.5748Y-2.6772
X6.624Y-2.4902
X6.6339Y-2.9134
X6.6437Y-1.7717
X6.6437Y-2.9921
X6.6437Y-3.1004
X6.6452Y-1.857
X6.6452Y-1.897
X6.7028Y-2.0866
X6.7421Y-2.9921
X6.7421Y-3.1004
X6.752Y-2.5394
X6.7618Y-1.7717
X6.7618Y-2.0374
X6.7717Y-1.9193
X6.7717Y-2.1161
X6.7717Y-2.2146
X6.7717Y-2.313
X6.7717Y-2.4114
X6.811Y-2.7165
X6.8307Y-1.8209
X6.8307Y-1.9193
X6.8307Y-2.0177
X6.8307Y-2.1161
X6.8307Y-2.2146
X6.8307Y-2.313
X6.8307Y-2.4114
X6.8307Y-2.8366
X6.8406Y-2.5295
X6.8406Y-2.9921
X6.8406Y-3.1004
X6.8504Y-1.6142
X6.8976Y-3.0945
X6.9193Y-2.5787
X6.937Y-2.8609
X6.937Y-3.1181
X6.939Y-2.7657
X6.9783Y-2.6181
X7.0Y-1.6142
X7.0276Y-2.9134
X7.0276Y-3.4055
X7.0276Y-3.8091
X7.0374Y-2.5787
X7.0394Y-3.6063
X7.0787Y-2.9055
X7.1811Y-3.6614
X7.1811Y-3.7594
X7.1811Y-3.8583
X7.2146Y-1.6142
X7.2146Y-1.8209
X7.2146Y-2.0177
X7.2146Y-2.2146
X7.2146Y-2.4114
X7.2146Y-2.6083
X7.2146Y-2.8051
T2
X6.2205Y-3.2583
X6.2205Y-3.3583
X6.2205Y-3.4583
X6.2205Y-3.5583
X6.2205Y-3.6583
X6.2205Y-3.7583
X6.2205Y-3.8583
X6.9409Y-3.2583
X6.9409Y-3.3583
X6.9409Y-3.4583
X6.9409Y-3.5583
X6.9409Y-3.6583
X6.9409Y-3.7583
X6.9409Y-3.8583
T3
X5.998Y-1.6811
X5.998Y-1.878
X5.998Y-2.0748
X5.998Y-2.2717
X5.998Y-2.4685
X5.998Y-2.6654
X5.998Y-2.8622
X5.998Y-3.0591
M30
