%TF.GenerationSoftware,KiCad,Pcbnew,9.0.0*%
%TF.CreationDate,2025-03-13T19:38:56+01:00*%
%TF.ProjectId,RoomUnit_MQTT_PCB,526f6f6d-556e-4697-945f-4d5154545f50,rev?*%
%TF.SameCoordinates,Original*%
%TF.FileFunction,Soldermask,Top*%
%TF.FilePolarity,Negative*%
%FSLAX46Y46*%
G04 Gerber Fmt 4.6, Leading zero omitted, Abs format (unit mm)*
G04 Created by KiCad (PCBNEW 9.0.0) date 2025-03-13 19:38:56*
%MOMM*%
%LPD*%
G01*
G04 APERTURE LIST*
G04 Aperture macros list*
%AMRoundRect*
0 Rectangle with rounded corners*
0 $1 Rounding radius*
0 $2 $3 $4 $5 $6 $7 $8 $9 X,Y pos of 4 corners*
0 Add a 4 corners polygon primitive as box body*
4,1,4,$2,$3,$4,$5,$6,$7,$8,$9,$2,$3,0*
0 Add four circle primitives for the rounded corners*
1,1,$1+$1,$2,$3*
1,1,$1+$1,$4,$5*
1,1,$1+$1,$6,$7*
1,1,$1+$1,$8,$9*
0 Add four rect primitives between the rounded corners*
20,1,$1+$1,$2,$3,$4,$5,0*
20,1,$1+$1,$4,$5,$6,$7,0*
20,1,$1+$1,$6,$7,$8,$9,0*
20,1,$1+$1,$8,$9,$2,$3,0*%
G04 Aperture macros list end*
%ADD10RoundRect,0.250000X-0.350000X-0.450000X0.350000X-0.450000X0.350000X0.450000X-0.350000X0.450000X0*%
%ADD11O,4.000000X1.524000*%
%ADD12RoundRect,0.250000X-0.450000X0.350000X-0.450000X-0.350000X0.450000X-0.350000X0.450000X0.350000X0*%
%ADD13RoundRect,0.250000X0.450000X-0.350000X0.450000X0.350000X-0.450000X0.350000X-0.450000X-0.350000X0*%
%ADD14RoundRect,0.250000X-0.650000X0.325000X-0.650000X-0.325000X0.650000X-0.325000X0.650000X0.325000X0*%
%ADD15RoundRect,0.250000X-0.475000X0.337500X-0.475000X-0.337500X0.475000X-0.337500X0.475000X0.337500X0*%
%ADD16RoundRect,0.250001X-0.499999X-0.999999X0.499999X-0.999999X0.499999X0.999999X-0.499999X0.999999X0*%
%ADD17RoundRect,0.150000X0.512500X0.150000X-0.512500X0.150000X-0.512500X-0.150000X0.512500X-0.150000X0*%
%ADD18C,3.500000*%
%ADD19RoundRect,0.250000X0.350000X0.450000X-0.350000X0.450000X-0.350000X-0.450000X0.350000X-0.450000X0*%
%ADD20RoundRect,0.250000X0.650000X-0.325000X0.650000X0.325000X-0.650000X0.325000X-0.650000X-0.325000X0*%
%ADD21RoundRect,0.250000X0.337500X0.475000X-0.337500X0.475000X-0.337500X-0.475000X0.337500X-0.475000X0*%
%ADD22RoundRect,0.150000X0.587500X0.150000X-0.587500X0.150000X-0.587500X-0.150000X0.587500X-0.150000X0*%
%ADD23RoundRect,0.150000X-0.825000X-0.150000X0.825000X-0.150000X0.825000X0.150000X-0.825000X0.150000X0*%
%ADD24RoundRect,0.150000X0.150000X-0.587500X0.150000X0.587500X-0.150000X0.587500X-0.150000X-0.587500X0*%
G04 APERTURE END LIST*
D10*
%TO.C,R3*%
X161446000Y-71044000D03*
X163446000Y-71044000D03*
%TD*%
D11*
%TO.C,J2*%
X158000000Y-98000000D03*
X158000000Y-95460000D03*
X158000000Y-92920000D03*
X158000000Y-90380000D03*
X158000000Y-87840000D03*
X158000000Y-85300000D03*
X158000000Y-82760000D03*
%TD*%
D12*
%TO.C,R15*%
X170250000Y-45750000D03*
X170250000Y-47750000D03*
%TD*%
D13*
%TO.C,R9*%
X165748000Y-67472000D03*
X165748000Y-65472000D03*
%TD*%
D14*
%TO.C,C3*%
X162000000Y-49775000D03*
X162000000Y-52725000D03*
%TD*%
D12*
%TO.C,R8*%
X175000000Y-69500000D03*
X175000000Y-71500000D03*
%TD*%
D10*
%TO.C,R17*%
X165250000Y-41750000D03*
X167250000Y-41750000D03*
%TD*%
D11*
%TO.C,J1*%
X176300000Y-98000000D03*
X176300000Y-95460000D03*
X176300000Y-92920000D03*
X176300000Y-90380000D03*
X176300000Y-87840000D03*
X176300000Y-85300000D03*
X176300000Y-82760000D03*
%TD*%
D12*
%TO.C,R16*%
X170312000Y-49724000D03*
X170312000Y-51724000D03*
%TD*%
%TO.C,R5*%
X177500000Y-69500000D03*
X177500000Y-71500000D03*
%TD*%
%TO.C,R4*%
X172750000Y-65500000D03*
X172750000Y-67500000D03*
%TD*%
D15*
%TO.C,C5*%
X169500000Y-41712500D03*
X169500000Y-43787500D03*
%TD*%
D16*
%TO.C,L1*%
X164398000Y-51740000D03*
X168098000Y-51740000D03*
%TD*%
D17*
%TO.C,U2*%
X167385500Y-48118000D03*
X167385500Y-47168000D03*
X167385500Y-46218000D03*
X165110500Y-46218000D03*
X165110500Y-47168000D03*
X165110500Y-48118000D03*
%TD*%
D18*
%TO.C,U4*%
X152350000Y-42700000D03*
X152350000Y-47700000D03*
X152350000Y-52700000D03*
X152350000Y-57700000D03*
X152350000Y-62700000D03*
X152350000Y-67700000D03*
X152350000Y-72700000D03*
X152350000Y-77700000D03*
%TD*%
D19*
%TO.C,R11*%
X181500000Y-95500000D03*
X179500000Y-95500000D03*
%TD*%
%TO.C,R13*%
X181500000Y-82757702D03*
X179500000Y-82757702D03*
%TD*%
D20*
%TO.C,C4*%
X162000000Y-47725000D03*
X162000000Y-44775000D03*
%TD*%
D10*
%TO.C,R6*%
X175250000Y-74000000D03*
X177250000Y-74000000D03*
%TD*%
D19*
%TO.C,R12*%
X181500000Y-93000000D03*
X179500000Y-93000000D03*
%TD*%
%TO.C,R14*%
X163446000Y-75108000D03*
X161446000Y-75108000D03*
%TD*%
D21*
%TO.C,C1*%
X170341500Y-67996000D03*
X168266500Y-67996000D03*
%TD*%
D22*
%TO.C,Q1*%
X177353500Y-67422000D03*
X177353500Y-65522000D03*
X175478500Y-66472000D03*
%TD*%
D23*
%TO.C,U1*%
X166829000Y-70155000D03*
X166829000Y-71425000D03*
X166829000Y-72695000D03*
X166829000Y-73965000D03*
X171779000Y-73965000D03*
X171779000Y-72695000D03*
X171779000Y-71425000D03*
X171779000Y-70155000D03*
%TD*%
D21*
%TO.C,C2*%
X170287500Y-65500000D03*
X168212500Y-65500000D03*
%TD*%
D24*
%TO.C,D1*%
X171800000Y-43687500D03*
X173700000Y-43687500D03*
X172750000Y-41812500D03*
%TD*%
D19*
%TO.C,R10*%
X181500000Y-98000000D03*
X179500000Y-98000000D03*
%TD*%
D10*
%TO.C,R1*%
X161446000Y-69012000D03*
X163446000Y-69012000D03*
%TD*%
%TO.C,R7*%
X165248000Y-44120000D03*
X167248000Y-44120000D03*
%TD*%
%TO.C,R2*%
X161446000Y-73076000D03*
X163446000Y-73076000D03*
%TD*%
M02*
