%TF.GenerationSoftware,KiCad,Pcbnew,9.0.0*%
%TF.CreationDate,2025-03-15T15:58:51+01:00*%
%TF.ProjectId,RoomUnit_MQTT_PCB,526f6f6d-556e-4697-945f-4d5154545f50,rev?*%
%TF.SameCoordinates,Original*%
%TF.FileFunction,Soldermask,Top*%
%TF.FilePolarity,Negative*%
%FSLAX46Y46*%
G04 Gerber Fmt 4.6, Leading zero omitted, Abs format (unit mm)*
G04 Created by KiCad (PCBNEW 9.0.0) date 2025-03-15 15:58:51*
%MOMM*%
%LPD*%
G01*
G04 APERTURE LIST*
G04 Aperture macros list*
%AMRoundRect*
0 Rectangle with rounded corners*
0 $1 Rounding radius*
0 $2 $3 $4 $5 $6 $7 $8 $9 X,Y pos of 4 corners*
0 Add a 4 corners polygon primitive as box body*
4,1,4,$2,$3,$4,$5,$6,$7,$8,$9,$2,$3,0*
0 Add four circle primitives for the rounded corners*
1,1,$1+$1,$2,$3*
1,1,$1+$1,$4,$5*
1,1,$1+$1,$6,$7*
1,1,$1+$1,$8,$9*
0 Add four rect primitives between the rounded corners*
20,1,$1+$1,$2,$3,$4,$5,0*
20,1,$1+$1,$4,$5,$6,$7,0*
20,1,$1+$1,$6,$7,$8,$9,0*
20,1,$1+$1,$8,$9,$2,$3,0*%
G04 Aperture macros list end*
%ADD10C,0.300000*%
%ADD11RoundRect,0.250001X-0.499999X-0.999999X0.499999X-0.999999X0.499999X0.999999X-0.499999X0.999999X0*%
%ADD12RoundRect,0.250000X-0.350000X-0.450000X0.350000X-0.450000X0.350000X0.450000X-0.350000X0.450000X0*%
%ADD13O,4.000000X1.524000*%
%ADD14RoundRect,0.250000X-0.450000X0.350000X-0.450000X-0.350000X0.450000X-0.350000X0.450000X0.350000X0*%
%ADD15RoundRect,0.250000X0.450000X-0.350000X0.450000X0.350000X-0.450000X0.350000X-0.450000X-0.350000X0*%
%ADD16RoundRect,0.250000X-0.650000X0.325000X-0.650000X-0.325000X0.650000X-0.325000X0.650000X0.325000X0*%
%ADD17RoundRect,0.250000X-0.475000X0.337500X-0.475000X-0.337500X0.475000X-0.337500X0.475000X0.337500X0*%
%ADD18RoundRect,0.150000X0.512500X0.150000X-0.512500X0.150000X-0.512500X-0.150000X0.512500X-0.150000X0*%
%ADD19C,3.500000*%
%ADD20RoundRect,0.250000X0.350000X0.450000X-0.350000X0.450000X-0.350000X-0.450000X0.350000X-0.450000X0*%
%ADD21RoundRect,0.250000X0.650000X-0.325000X0.650000X0.325000X-0.650000X0.325000X-0.650000X-0.325000X0*%
%ADD22RoundRect,0.250000X0.337500X0.475000X-0.337500X0.475000X-0.337500X-0.475000X0.337500X-0.475000X0*%
%ADD23RoundRect,0.150000X0.587500X0.150000X-0.587500X0.150000X-0.587500X-0.150000X0.587500X-0.150000X0*%
%ADD24RoundRect,0.150000X-0.825000X-0.150000X0.825000X-0.150000X0.825000X0.150000X-0.825000X0.150000X0*%
%ADD25RoundRect,0.150000X0.150000X-0.587500X0.150000X0.587500X-0.150000X0.587500X-0.150000X-0.587500X0*%
G04 APERTURE END LIST*
D10*
X151500828Y-98259774D02*
X153000828Y-97759774D01*
X153000828Y-97759774D02*
X151500828Y-97259774D01*
X153000828Y-95974060D02*
X153000828Y-96831203D01*
X153000828Y-96402632D02*
X151500828Y-96402632D01*
X151500828Y-96402632D02*
X151715114Y-96545489D01*
X151715114Y-96545489D02*
X151857971Y-96688346D01*
X151857971Y-96688346D02*
X151929400Y-96831203D01*
X152857971Y-95331204D02*
X152929400Y-95259775D01*
X152929400Y-95259775D02*
X153000828Y-95331204D01*
X153000828Y-95331204D02*
X152929400Y-95402632D01*
X152929400Y-95402632D02*
X152857971Y-95331204D01*
X152857971Y-95331204D02*
X153000828Y-95331204D01*
X151500828Y-94331203D02*
X151500828Y-94188346D01*
X151500828Y-94188346D02*
X151572257Y-94045489D01*
X151572257Y-94045489D02*
X151643685Y-93974061D01*
X151643685Y-93974061D02*
X151786542Y-93902632D01*
X151786542Y-93902632D02*
X152072257Y-93831203D01*
X152072257Y-93831203D02*
X152429400Y-93831203D01*
X152429400Y-93831203D02*
X152715114Y-93902632D01*
X152715114Y-93902632D02*
X152857971Y-93974061D01*
X152857971Y-93974061D02*
X152929400Y-94045489D01*
X152929400Y-94045489D02*
X153000828Y-94188346D01*
X153000828Y-94188346D02*
X153000828Y-94331203D01*
X153000828Y-94331203D02*
X152929400Y-94474061D01*
X152929400Y-94474061D02*
X152857971Y-94545489D01*
X152857971Y-94545489D02*
X152715114Y-94616918D01*
X152715114Y-94616918D02*
X152429400Y-94688346D01*
X152429400Y-94688346D02*
X152072257Y-94688346D01*
X152072257Y-94688346D02*
X151786542Y-94616918D01*
X151786542Y-94616918D02*
X151643685Y-94545489D01*
X151643685Y-94545489D02*
X151572257Y-94474061D01*
X151572257Y-94474061D02*
X151500828Y-94331203D01*
X180185912Y-63788346D02*
X179471626Y-64288346D01*
X180185912Y-64645489D02*
X178685912Y-64645489D01*
X178685912Y-64645489D02*
X178685912Y-64074060D01*
X178685912Y-64074060D02*
X178757341Y-63931203D01*
X178757341Y-63931203D02*
X178828769Y-63859774D01*
X178828769Y-63859774D02*
X178971626Y-63788346D01*
X178971626Y-63788346D02*
X179185912Y-63788346D01*
X179185912Y-63788346D02*
X179328769Y-63859774D01*
X179328769Y-63859774D02*
X179400198Y-63931203D01*
X179400198Y-63931203D02*
X179471626Y-64074060D01*
X179471626Y-64074060D02*
X179471626Y-64645489D01*
X180185912Y-62931203D02*
X180114484Y-63074060D01*
X180114484Y-63074060D02*
X180043055Y-63145489D01*
X180043055Y-63145489D02*
X179900198Y-63216917D01*
X179900198Y-63216917D02*
X179471626Y-63216917D01*
X179471626Y-63216917D02*
X179328769Y-63145489D01*
X179328769Y-63145489D02*
X179257341Y-63074060D01*
X179257341Y-63074060D02*
X179185912Y-62931203D01*
X179185912Y-62931203D02*
X179185912Y-62716917D01*
X179185912Y-62716917D02*
X179257341Y-62574060D01*
X179257341Y-62574060D02*
X179328769Y-62502632D01*
X179328769Y-62502632D02*
X179471626Y-62431203D01*
X179471626Y-62431203D02*
X179900198Y-62431203D01*
X179900198Y-62431203D02*
X180043055Y-62502632D01*
X180043055Y-62502632D02*
X180114484Y-62574060D01*
X180114484Y-62574060D02*
X180185912Y-62716917D01*
X180185912Y-62716917D02*
X180185912Y-62931203D01*
X180185912Y-61574060D02*
X180114484Y-61716917D01*
X180114484Y-61716917D02*
X180043055Y-61788346D01*
X180043055Y-61788346D02*
X179900198Y-61859774D01*
X179900198Y-61859774D02*
X179471626Y-61859774D01*
X179471626Y-61859774D02*
X179328769Y-61788346D01*
X179328769Y-61788346D02*
X179257341Y-61716917D01*
X179257341Y-61716917D02*
X179185912Y-61574060D01*
X179185912Y-61574060D02*
X179185912Y-61359774D01*
X179185912Y-61359774D02*
X179257341Y-61216917D01*
X179257341Y-61216917D02*
X179328769Y-61145489D01*
X179328769Y-61145489D02*
X179471626Y-61074060D01*
X179471626Y-61074060D02*
X179900198Y-61074060D01*
X179900198Y-61074060D02*
X180043055Y-61145489D01*
X180043055Y-61145489D02*
X180114484Y-61216917D01*
X180114484Y-61216917D02*
X180185912Y-61359774D01*
X180185912Y-61359774D02*
X180185912Y-61574060D01*
X180185912Y-60431203D02*
X179185912Y-60431203D01*
X179328769Y-60431203D02*
X179257341Y-60359774D01*
X179257341Y-60359774D02*
X179185912Y-60216917D01*
X179185912Y-60216917D02*
X179185912Y-60002631D01*
X179185912Y-60002631D02*
X179257341Y-59859774D01*
X179257341Y-59859774D02*
X179400198Y-59788346D01*
X179400198Y-59788346D02*
X180185912Y-59788346D01*
X179400198Y-59788346D02*
X179257341Y-59716917D01*
X179257341Y-59716917D02*
X179185912Y-59574060D01*
X179185912Y-59574060D02*
X179185912Y-59359774D01*
X179185912Y-59359774D02*
X179257341Y-59216917D01*
X179257341Y-59216917D02*
X179400198Y-59145488D01*
X179400198Y-59145488D02*
X180185912Y-59145488D01*
X178685912Y-57288346D02*
X179900198Y-57288346D01*
X179900198Y-57288346D02*
X180043055Y-57216917D01*
X180043055Y-57216917D02*
X180114484Y-57145489D01*
X180114484Y-57145489D02*
X180185912Y-57002631D01*
X180185912Y-57002631D02*
X180185912Y-56716917D01*
X180185912Y-56716917D02*
X180114484Y-56574060D01*
X180114484Y-56574060D02*
X180043055Y-56502631D01*
X180043055Y-56502631D02*
X179900198Y-56431203D01*
X179900198Y-56431203D02*
X178685912Y-56431203D01*
X179185912Y-55716917D02*
X180185912Y-55716917D01*
X179328769Y-55716917D02*
X179257341Y-55645488D01*
X179257341Y-55645488D02*
X179185912Y-55502631D01*
X179185912Y-55502631D02*
X179185912Y-55288345D01*
X179185912Y-55288345D02*
X179257341Y-55145488D01*
X179257341Y-55145488D02*
X179400198Y-55074060D01*
X179400198Y-55074060D02*
X180185912Y-55074060D01*
X180185912Y-54359774D02*
X179185912Y-54359774D01*
X178685912Y-54359774D02*
X178757341Y-54431202D01*
X178757341Y-54431202D02*
X178828769Y-54359774D01*
X178828769Y-54359774D02*
X178757341Y-54288345D01*
X178757341Y-54288345D02*
X178685912Y-54359774D01*
X178685912Y-54359774D02*
X178828769Y-54359774D01*
X179185912Y-53859773D02*
X179185912Y-53288345D01*
X178685912Y-53645488D02*
X179971626Y-53645488D01*
X179971626Y-53645488D02*
X180114484Y-53574059D01*
X180114484Y-53574059D02*
X180185912Y-53431202D01*
X180185912Y-53431202D02*
X180185912Y-53288345D01*
X180185912Y-51645488D02*
X178685912Y-51645488D01*
X178685912Y-51645488D02*
X179757341Y-51145488D01*
X179757341Y-51145488D02*
X178685912Y-50645488D01*
X178685912Y-50645488D02*
X180185912Y-50645488D01*
X180328769Y-48931202D02*
X180257341Y-49074059D01*
X180257341Y-49074059D02*
X180114484Y-49216916D01*
X180114484Y-49216916D02*
X179900198Y-49431202D01*
X179900198Y-49431202D02*
X179828769Y-49574059D01*
X179828769Y-49574059D02*
X179828769Y-49716916D01*
X180185912Y-49645487D02*
X180114484Y-49788345D01*
X180114484Y-49788345D02*
X179971626Y-49931202D01*
X179971626Y-49931202D02*
X179685912Y-50002630D01*
X179685912Y-50002630D02*
X179185912Y-50002630D01*
X179185912Y-50002630D02*
X178900198Y-49931202D01*
X178900198Y-49931202D02*
X178757341Y-49788345D01*
X178757341Y-49788345D02*
X178685912Y-49645487D01*
X178685912Y-49645487D02*
X178685912Y-49359773D01*
X178685912Y-49359773D02*
X178757341Y-49216916D01*
X178757341Y-49216916D02*
X178900198Y-49074059D01*
X178900198Y-49074059D02*
X179185912Y-49002630D01*
X179185912Y-49002630D02*
X179685912Y-49002630D01*
X179685912Y-49002630D02*
X179971626Y-49074059D01*
X179971626Y-49074059D02*
X180114484Y-49216916D01*
X180114484Y-49216916D02*
X180185912Y-49359773D01*
X180185912Y-49359773D02*
X180185912Y-49645487D01*
X178685912Y-48574058D02*
X178685912Y-47716916D01*
X180185912Y-48145487D02*
X178685912Y-48145487D01*
X178685912Y-47431201D02*
X178685912Y-46574059D01*
X180185912Y-47002630D02*
X178685912Y-47002630D01*
X180185912Y-44931202D02*
X178685912Y-44931202D01*
X179400198Y-44931202D02*
X179400198Y-44074059D01*
X180185912Y-44074059D02*
X178685912Y-44074059D01*
X179757341Y-43431201D02*
X179757341Y-42716916D01*
X180185912Y-43574058D02*
X178685912Y-43074058D01*
X178685912Y-43074058D02*
X180185912Y-42574058D01*
X178685912Y-42288344D02*
X178685912Y-41431202D01*
X180185912Y-41859773D02*
X178685912Y-41859773D01*
X182600828Y-64645489D02*
X181100828Y-64645489D01*
X181672257Y-64645489D02*
X181600828Y-64502632D01*
X181600828Y-64502632D02*
X181600828Y-64216917D01*
X181600828Y-64216917D02*
X181672257Y-64074060D01*
X181672257Y-64074060D02*
X181743685Y-64002632D01*
X181743685Y-64002632D02*
X181886542Y-63931203D01*
X181886542Y-63931203D02*
X182315114Y-63931203D01*
X182315114Y-63931203D02*
X182457971Y-64002632D01*
X182457971Y-64002632D02*
X182529400Y-64074060D01*
X182529400Y-64074060D02*
X182600828Y-64216917D01*
X182600828Y-64216917D02*
X182600828Y-64502632D01*
X182600828Y-64502632D02*
X182529400Y-64645489D01*
X181600828Y-63431203D02*
X182600828Y-63074060D01*
X181600828Y-62716917D02*
X182600828Y-63074060D01*
X182600828Y-63074060D02*
X182957971Y-63216917D01*
X182957971Y-63216917D02*
X183029400Y-63288346D01*
X183029400Y-63288346D02*
X183100828Y-63431203D01*
X181100828Y-61145489D02*
X182600828Y-60788346D01*
X182600828Y-60788346D02*
X181529400Y-60502632D01*
X181529400Y-60502632D02*
X182600828Y-60216917D01*
X182600828Y-60216917D02*
X181100828Y-59859775D01*
X181815114Y-59288346D02*
X181815114Y-58788346D01*
X182600828Y-58574060D02*
X182600828Y-59288346D01*
X182600828Y-59288346D02*
X181100828Y-59288346D01*
X181100828Y-59288346D02*
X181100828Y-58574060D01*
X181886542Y-57645488D02*
X182600828Y-57645488D01*
X181100828Y-58145488D02*
X181886542Y-57645488D01*
X181886542Y-57645488D02*
X181100828Y-57145488D01*
X181815114Y-55502632D02*
X181815114Y-55002632D01*
X182600828Y-54788346D02*
X182600828Y-55502632D01*
X182600828Y-55502632D02*
X181100828Y-55502632D01*
X181100828Y-55502632D02*
X181100828Y-54788346D01*
X182600828Y-54145489D02*
X181100828Y-54145489D01*
X181100828Y-54145489D02*
X182600828Y-53288346D01*
X182600828Y-53288346D02*
X181100828Y-53288346D01*
X181172257Y-51788345D02*
X181100828Y-51931203D01*
X181100828Y-51931203D02*
X181100828Y-52145488D01*
X181100828Y-52145488D02*
X181172257Y-52359774D01*
X181172257Y-52359774D02*
X181315114Y-52502631D01*
X181315114Y-52502631D02*
X181457971Y-52574060D01*
X181457971Y-52574060D02*
X181743685Y-52645488D01*
X181743685Y-52645488D02*
X181957971Y-52645488D01*
X181957971Y-52645488D02*
X182243685Y-52574060D01*
X182243685Y-52574060D02*
X182386542Y-52502631D01*
X182386542Y-52502631D02*
X182529400Y-52359774D01*
X182529400Y-52359774D02*
X182600828Y-52145488D01*
X182600828Y-52145488D02*
X182600828Y-52002631D01*
X182600828Y-52002631D02*
X182529400Y-51788345D01*
X182529400Y-51788345D02*
X182457971Y-51716917D01*
X182457971Y-51716917D02*
X181957971Y-51716917D01*
X181957971Y-51716917D02*
X181957971Y-52002631D01*
X182600828Y-51074060D02*
X181100828Y-51074060D01*
X182600828Y-50359774D02*
X181100828Y-50359774D01*
X181100828Y-50359774D02*
X182600828Y-49502631D01*
X182600828Y-49502631D02*
X181100828Y-49502631D01*
X181815114Y-48788345D02*
X181815114Y-48288345D01*
X182600828Y-48074059D02*
X182600828Y-48788345D01*
X182600828Y-48788345D02*
X181100828Y-48788345D01*
X181100828Y-48788345D02*
X181100828Y-48074059D01*
X181815114Y-47431202D02*
X181815114Y-46931202D01*
X182600828Y-46716916D02*
X182600828Y-47431202D01*
X182600828Y-47431202D02*
X181100828Y-47431202D01*
X181100828Y-47431202D02*
X181100828Y-46716916D01*
X182600828Y-45216916D02*
X181886542Y-45716916D01*
X182600828Y-46074059D02*
X181100828Y-46074059D01*
X181100828Y-46074059D02*
X181100828Y-45502630D01*
X181100828Y-45502630D02*
X181172257Y-45359773D01*
X181172257Y-45359773D02*
X181243685Y-45288344D01*
X181243685Y-45288344D02*
X181386542Y-45216916D01*
X181386542Y-45216916D02*
X181600828Y-45216916D01*
X181600828Y-45216916D02*
X181743685Y-45288344D01*
X181743685Y-45288344D02*
X181815114Y-45359773D01*
X181815114Y-45359773D02*
X181886542Y-45502630D01*
X181886542Y-45502630D02*
X181886542Y-46074059D01*
X182600828Y-44574059D02*
X181100828Y-44574059D01*
X182600828Y-43859773D02*
X181100828Y-43859773D01*
X181100828Y-43859773D02*
X182600828Y-43002630D01*
X182600828Y-43002630D02*
X181100828Y-43002630D01*
X181172257Y-41502629D02*
X181100828Y-41645487D01*
X181100828Y-41645487D02*
X181100828Y-41859772D01*
X181100828Y-41859772D02*
X181172257Y-42074058D01*
X181172257Y-42074058D02*
X181315114Y-42216915D01*
X181315114Y-42216915D02*
X181457971Y-42288344D01*
X181457971Y-42288344D02*
X181743685Y-42359772D01*
X181743685Y-42359772D02*
X181957971Y-42359772D01*
X181957971Y-42359772D02*
X182243685Y-42288344D01*
X182243685Y-42288344D02*
X182386542Y-42216915D01*
X182386542Y-42216915D02*
X182529400Y-42074058D01*
X182529400Y-42074058D02*
X182600828Y-41859772D01*
X182600828Y-41859772D02*
X182600828Y-41716915D01*
X182600828Y-41716915D02*
X182529400Y-41502629D01*
X182529400Y-41502629D02*
X182457971Y-41431201D01*
X182457971Y-41431201D02*
X181957971Y-41431201D01*
X181957971Y-41431201D02*
X181957971Y-41716915D01*
D11*
%TO.C,L1*%
X168098000Y-51740000D03*
X164398000Y-51740000D03*
%TD*%
D12*
%TO.C,R23*%
X179800000Y-76200000D03*
X181800000Y-76200000D03*
%TD*%
%TO.C,R3*%
X161446000Y-71044000D03*
X163446000Y-71044000D03*
%TD*%
D13*
%TO.C,J2*%
X158000000Y-98000000D03*
X158000000Y-95460000D03*
X158000000Y-92920000D03*
X158000000Y-90380000D03*
X158000000Y-87840000D03*
X158000000Y-85300000D03*
X158000000Y-82760000D03*
%TD*%
D14*
%TO.C,R15*%
X170250000Y-45750000D03*
X170250000Y-47750000D03*
%TD*%
D15*
%TO.C,R9*%
X165748000Y-67472000D03*
X165748000Y-65472000D03*
%TD*%
D16*
%TO.C,C3*%
X162000000Y-49775000D03*
X162000000Y-52725000D03*
%TD*%
D14*
%TO.C,R8*%
X175000000Y-69500000D03*
X175000000Y-71500000D03*
%TD*%
D12*
%TO.C,R19*%
X179400000Y-95489489D03*
X181400000Y-95489489D03*
%TD*%
%TO.C,R17*%
X165250000Y-41750000D03*
X167250000Y-41750000D03*
%TD*%
%TO.C,R22*%
X179800000Y-78400000D03*
X181800000Y-78400000D03*
%TD*%
D13*
%TO.C,J1*%
X176300000Y-98000000D03*
X176300000Y-95460000D03*
X176300000Y-92920000D03*
X176300000Y-90380000D03*
X176300000Y-87840000D03*
X176300000Y-85300000D03*
X176300000Y-82760000D03*
%TD*%
D14*
%TO.C,R16*%
X170312000Y-49724000D03*
X170312000Y-51724000D03*
%TD*%
%TO.C,R5*%
X177500000Y-69500000D03*
X177500000Y-71500000D03*
%TD*%
D12*
%TO.C,R18*%
X179400000Y-98000000D03*
X181400000Y-98000000D03*
%TD*%
D14*
%TO.C,R4*%
X172750000Y-65500000D03*
X172750000Y-67500000D03*
%TD*%
D17*
%TO.C,C5*%
X169500000Y-41712500D03*
X169500000Y-43787500D03*
%TD*%
D18*
%TO.C,U2*%
X167385500Y-48118000D03*
X167385500Y-47168000D03*
X167385500Y-46218000D03*
X165110500Y-46218000D03*
X165110500Y-47168000D03*
X165110500Y-48118000D03*
%TD*%
D12*
%TO.C,R20*%
X179400000Y-93000000D03*
X181400000Y-93000000D03*
%TD*%
D19*
%TO.C,U4*%
X152350000Y-42700000D03*
X152350000Y-47700000D03*
X152350000Y-52700000D03*
X152350000Y-57700000D03*
X152350000Y-62700000D03*
X152350000Y-67700000D03*
X152350000Y-72700000D03*
X152350000Y-77700000D03*
%TD*%
D20*
%TO.C,R13*%
X181800000Y-82800000D03*
X179800000Y-82800000D03*
%TD*%
D21*
%TO.C,C4*%
X162000000Y-47725000D03*
X162000000Y-44775000D03*
%TD*%
D12*
%TO.C,R6*%
X175250000Y-74000000D03*
X177250000Y-74000000D03*
%TD*%
D20*
%TO.C,R14*%
X163446000Y-75108000D03*
X161446000Y-75108000D03*
%TD*%
D22*
%TO.C,C1*%
X170341500Y-67996000D03*
X168266500Y-67996000D03*
%TD*%
D12*
%TO.C,R21*%
X179800000Y-80600000D03*
X181800000Y-80600000D03*
%TD*%
D23*
%TO.C,Q1*%
X177353500Y-67422000D03*
X177353500Y-65522000D03*
X175478500Y-66472000D03*
%TD*%
D24*
%TO.C,U1*%
X166829000Y-70155000D03*
X166829000Y-71425000D03*
X166829000Y-72695000D03*
X166829000Y-73965000D03*
X171779000Y-73965000D03*
X171779000Y-72695000D03*
X171779000Y-71425000D03*
X171779000Y-70155000D03*
%TD*%
D22*
%TO.C,C2*%
X170287500Y-65500000D03*
X168212500Y-65500000D03*
%TD*%
D25*
%TO.C,D1*%
X171800000Y-43687500D03*
X173700000Y-43687500D03*
X172750000Y-41812500D03*
%TD*%
D12*
%TO.C,R1*%
X161446000Y-69012000D03*
X163446000Y-69012000D03*
%TD*%
%TO.C,R7*%
X165248000Y-44120000D03*
X167248000Y-44120000D03*
%TD*%
%TO.C,R2*%
X161446000Y-73076000D03*
X163446000Y-73076000D03*
%TD*%
M02*
