%TF.GenerationSoftware,KiCad,Pcbnew,9.0.0*%
%TF.CreationDate,2025-03-15T20:57:12+01:00*%
%TF.ProjectId,RoomUnit_MQTT_PCB,526f6f6d-556e-4697-945f-4d5154545f50,rev?*%
%TF.SameCoordinates,Original*%
%TF.FileFunction,Soldermask,Top*%
%TF.FilePolarity,Negative*%
%FSLAX46Y46*%
G04 Gerber Fmt 4.6, Leading zero omitted, Abs format (unit mm)*
G04 Created by KiCad (PCBNEW 9.0.0) date 2025-03-15 20:57:12*
%MOMM*%
%LPD*%
G01*
G04 APERTURE LIST*
G04 Aperture macros list*
%AMRoundRect*
0 Rectangle with rounded corners*
0 $1 Rounding radius*
0 $2 $3 $4 $5 $6 $7 $8 $9 X,Y pos of 4 corners*
0 Add a 4 corners polygon primitive as box body*
4,1,4,$2,$3,$4,$5,$6,$7,$8,$9,$2,$3,0*
0 Add four circle primitives for the rounded corners*
1,1,$1+$1,$2,$3*
1,1,$1+$1,$4,$5*
1,1,$1+$1,$6,$7*
1,1,$1+$1,$8,$9*
0 Add four rect primitives between the rounded corners*
20,1,$1+$1,$2,$3,$4,$5,0*
20,1,$1+$1,$4,$5,$6,$7,0*
20,1,$1+$1,$6,$7,$8,$9,0*
20,1,$1+$1,$8,$9,$2,$3,0*%
G04 Aperture macros list end*
%ADD10C,0.300000*%
%ADD11RoundRect,0.250000X-0.350000X-0.450000X0.350000X-0.450000X0.350000X0.450000X-0.350000X0.450000X0*%
%ADD12O,4.000000X1.524000*%
%ADD13RoundRect,0.250000X-0.450000X0.350000X-0.450000X-0.350000X0.450000X-0.350000X0.450000X0.350000X0*%
%ADD14RoundRect,0.250000X0.450000X-0.350000X0.450000X0.350000X-0.450000X0.350000X-0.450000X-0.350000X0*%
%ADD15RoundRect,0.250000X-0.650000X0.325000X-0.650000X-0.325000X0.650000X-0.325000X0.650000X0.325000X0*%
%ADD16RoundRect,0.250000X-0.475000X0.337500X-0.475000X-0.337500X0.475000X-0.337500X0.475000X0.337500X0*%
%ADD17RoundRect,0.250001X-0.499999X-0.999999X0.499999X-0.999999X0.499999X0.999999X-0.499999X0.999999X0*%
%ADD18RoundRect,0.150000X0.512500X0.150000X-0.512500X0.150000X-0.512500X-0.150000X0.512500X-0.150000X0*%
%ADD19C,3.500000*%
%ADD20RoundRect,0.250000X0.350000X0.450000X-0.350000X0.450000X-0.350000X-0.450000X0.350000X-0.450000X0*%
%ADD21RoundRect,0.250000X0.650000X-0.325000X0.650000X0.325000X-0.650000X0.325000X-0.650000X-0.325000X0*%
%ADD22RoundRect,0.250000X0.337500X0.475000X-0.337500X0.475000X-0.337500X-0.475000X0.337500X-0.475000X0*%
%ADD23RoundRect,0.150000X0.587500X0.150000X-0.587500X0.150000X-0.587500X-0.150000X0.587500X-0.150000X0*%
%ADD24RoundRect,0.150000X-0.825000X-0.150000X0.825000X-0.150000X0.825000X0.150000X-0.825000X0.150000X0*%
%ADD25RoundRect,0.150000X0.150000X-0.587500X0.150000X0.587500X-0.150000X0.587500X-0.150000X-0.587500X0*%
G04 APERTURE END LIST*
D10*
X151613066Y-98145298D02*
X153013066Y-97678632D01*
X153013066Y-97678632D02*
X151613066Y-97211965D01*
X153013066Y-96011965D02*
X153013066Y-96811965D01*
X153013066Y-96411965D02*
X151613066Y-96411965D01*
X151613066Y-96411965D02*
X151813066Y-96545298D01*
X151813066Y-96545298D02*
X151946400Y-96678632D01*
X151946400Y-96678632D02*
X152013066Y-96811965D01*
X152879733Y-95411965D02*
X152946400Y-95345299D01*
X152946400Y-95345299D02*
X153013066Y-95411965D01*
X153013066Y-95411965D02*
X152946400Y-95478632D01*
X152946400Y-95478632D02*
X152879733Y-95411965D01*
X152879733Y-95411965D02*
X153013066Y-95411965D01*
X151613066Y-94478632D02*
X151613066Y-94345298D01*
X151613066Y-94345298D02*
X151679733Y-94211965D01*
X151679733Y-94211965D02*
X151746400Y-94145298D01*
X151746400Y-94145298D02*
X151879733Y-94078632D01*
X151879733Y-94078632D02*
X152146400Y-94011965D01*
X152146400Y-94011965D02*
X152479733Y-94011965D01*
X152479733Y-94011965D02*
X152746400Y-94078632D01*
X152746400Y-94078632D02*
X152879733Y-94145298D01*
X152879733Y-94145298D02*
X152946400Y-94211965D01*
X152946400Y-94211965D02*
X153013066Y-94345298D01*
X153013066Y-94345298D02*
X153013066Y-94478632D01*
X153013066Y-94478632D02*
X152946400Y-94611965D01*
X152946400Y-94611965D02*
X152879733Y-94678632D01*
X152879733Y-94678632D02*
X152746400Y-94745298D01*
X152746400Y-94745298D02*
X152479733Y-94811965D01*
X152479733Y-94811965D02*
X152146400Y-94811965D01*
X152146400Y-94811965D02*
X151879733Y-94745298D01*
X151879733Y-94745298D02*
X151746400Y-94678632D01*
X151746400Y-94678632D02*
X151679733Y-94611965D01*
X151679733Y-94611965D02*
X151613066Y-94478632D01*
X179817144Y-62601298D02*
X179150478Y-63067965D01*
X179817144Y-63401298D02*
X178417144Y-63401298D01*
X178417144Y-63401298D02*
X178417144Y-62867965D01*
X178417144Y-62867965D02*
X178483811Y-62734632D01*
X178483811Y-62734632D02*
X178550478Y-62667965D01*
X178550478Y-62667965D02*
X178683811Y-62601298D01*
X178683811Y-62601298D02*
X178883811Y-62601298D01*
X178883811Y-62601298D02*
X179017144Y-62667965D01*
X179017144Y-62667965D02*
X179083811Y-62734632D01*
X179083811Y-62734632D02*
X179150478Y-62867965D01*
X179150478Y-62867965D02*
X179150478Y-63401298D01*
X179817144Y-61801298D02*
X179750478Y-61934632D01*
X179750478Y-61934632D02*
X179683811Y-62001298D01*
X179683811Y-62001298D02*
X179550478Y-62067965D01*
X179550478Y-62067965D02*
X179150478Y-62067965D01*
X179150478Y-62067965D02*
X179017144Y-62001298D01*
X179017144Y-62001298D02*
X178950478Y-61934632D01*
X178950478Y-61934632D02*
X178883811Y-61801298D01*
X178883811Y-61801298D02*
X178883811Y-61601298D01*
X178883811Y-61601298D02*
X178950478Y-61467965D01*
X178950478Y-61467965D02*
X179017144Y-61401298D01*
X179017144Y-61401298D02*
X179150478Y-61334632D01*
X179150478Y-61334632D02*
X179550478Y-61334632D01*
X179550478Y-61334632D02*
X179683811Y-61401298D01*
X179683811Y-61401298D02*
X179750478Y-61467965D01*
X179750478Y-61467965D02*
X179817144Y-61601298D01*
X179817144Y-61601298D02*
X179817144Y-61801298D01*
X179817144Y-60534631D02*
X179750478Y-60667965D01*
X179750478Y-60667965D02*
X179683811Y-60734631D01*
X179683811Y-60734631D02*
X179550478Y-60801298D01*
X179550478Y-60801298D02*
X179150478Y-60801298D01*
X179150478Y-60801298D02*
X179017144Y-60734631D01*
X179017144Y-60734631D02*
X178950478Y-60667965D01*
X178950478Y-60667965D02*
X178883811Y-60534631D01*
X178883811Y-60534631D02*
X178883811Y-60334631D01*
X178883811Y-60334631D02*
X178950478Y-60201298D01*
X178950478Y-60201298D02*
X179017144Y-60134631D01*
X179017144Y-60134631D02*
X179150478Y-60067965D01*
X179150478Y-60067965D02*
X179550478Y-60067965D01*
X179550478Y-60067965D02*
X179683811Y-60134631D01*
X179683811Y-60134631D02*
X179750478Y-60201298D01*
X179750478Y-60201298D02*
X179817144Y-60334631D01*
X179817144Y-60334631D02*
X179817144Y-60534631D01*
X179817144Y-59467964D02*
X178883811Y-59467964D01*
X179017144Y-59467964D02*
X178950478Y-59401298D01*
X178950478Y-59401298D02*
X178883811Y-59267964D01*
X178883811Y-59267964D02*
X178883811Y-59067964D01*
X178883811Y-59067964D02*
X178950478Y-58934631D01*
X178950478Y-58934631D02*
X179083811Y-58867964D01*
X179083811Y-58867964D02*
X179817144Y-58867964D01*
X179083811Y-58867964D02*
X178950478Y-58801298D01*
X178950478Y-58801298D02*
X178883811Y-58667964D01*
X178883811Y-58667964D02*
X178883811Y-58467964D01*
X178883811Y-58467964D02*
X178950478Y-58334631D01*
X178950478Y-58334631D02*
X179083811Y-58267964D01*
X179083811Y-58267964D02*
X179817144Y-58267964D01*
X178417144Y-56534630D02*
X179550478Y-56534630D01*
X179550478Y-56534630D02*
X179683811Y-56467964D01*
X179683811Y-56467964D02*
X179750478Y-56401297D01*
X179750478Y-56401297D02*
X179817144Y-56267964D01*
X179817144Y-56267964D02*
X179817144Y-56001297D01*
X179817144Y-56001297D02*
X179750478Y-55867964D01*
X179750478Y-55867964D02*
X179683811Y-55801297D01*
X179683811Y-55801297D02*
X179550478Y-55734630D01*
X179550478Y-55734630D02*
X178417144Y-55734630D01*
X178883811Y-55067963D02*
X179817144Y-55067963D01*
X179017144Y-55067963D02*
X178950478Y-55001297D01*
X178950478Y-55001297D02*
X178883811Y-54867963D01*
X178883811Y-54867963D02*
X178883811Y-54667963D01*
X178883811Y-54667963D02*
X178950478Y-54534630D01*
X178950478Y-54534630D02*
X179083811Y-54467963D01*
X179083811Y-54467963D02*
X179817144Y-54467963D01*
X179817144Y-53801296D02*
X178883811Y-53801296D01*
X178417144Y-53801296D02*
X178483811Y-53867963D01*
X178483811Y-53867963D02*
X178550478Y-53801296D01*
X178550478Y-53801296D02*
X178483811Y-53734630D01*
X178483811Y-53734630D02*
X178417144Y-53801296D01*
X178417144Y-53801296D02*
X178550478Y-53801296D01*
X178883811Y-53334629D02*
X178883811Y-52801296D01*
X178417144Y-53134629D02*
X179617144Y-53134629D01*
X179617144Y-53134629D02*
X179750478Y-53067963D01*
X179750478Y-53067963D02*
X179817144Y-52934629D01*
X179817144Y-52934629D02*
X179817144Y-52801296D01*
X179817144Y-51267962D02*
X178417144Y-51267962D01*
X178417144Y-51267962D02*
X179417144Y-50801296D01*
X179417144Y-50801296D02*
X178417144Y-50334629D01*
X178417144Y-50334629D02*
X179817144Y-50334629D01*
X179950478Y-48734629D02*
X179883811Y-48867962D01*
X179883811Y-48867962D02*
X179750478Y-49001296D01*
X179750478Y-49001296D02*
X179550478Y-49201296D01*
X179550478Y-49201296D02*
X179483811Y-49334629D01*
X179483811Y-49334629D02*
X179483811Y-49467962D01*
X179817144Y-49401296D02*
X179750478Y-49534629D01*
X179750478Y-49534629D02*
X179617144Y-49667962D01*
X179617144Y-49667962D02*
X179350478Y-49734629D01*
X179350478Y-49734629D02*
X178883811Y-49734629D01*
X178883811Y-49734629D02*
X178617144Y-49667962D01*
X178617144Y-49667962D02*
X178483811Y-49534629D01*
X178483811Y-49534629D02*
X178417144Y-49401296D01*
X178417144Y-49401296D02*
X178417144Y-49134629D01*
X178417144Y-49134629D02*
X178483811Y-49001296D01*
X178483811Y-49001296D02*
X178617144Y-48867962D01*
X178617144Y-48867962D02*
X178883811Y-48801296D01*
X178883811Y-48801296D02*
X179350478Y-48801296D01*
X179350478Y-48801296D02*
X179617144Y-48867962D01*
X179617144Y-48867962D02*
X179750478Y-49001296D01*
X179750478Y-49001296D02*
X179817144Y-49134629D01*
X179817144Y-49134629D02*
X179817144Y-49401296D01*
X178417144Y-48401295D02*
X178417144Y-47601295D01*
X179817144Y-48001295D02*
X178417144Y-48001295D01*
X178417144Y-47334628D02*
X178417144Y-46534628D01*
X179817144Y-46934628D02*
X178417144Y-46934628D01*
X179817144Y-45001294D02*
X178417144Y-45001294D01*
X179083811Y-45001294D02*
X179083811Y-44201294D01*
X179817144Y-44201294D02*
X178417144Y-44201294D01*
X179417144Y-43601294D02*
X179417144Y-42934627D01*
X179817144Y-43734627D02*
X178417144Y-43267961D01*
X178417144Y-43267961D02*
X179817144Y-42801294D01*
X178417144Y-42534627D02*
X178417144Y-41734627D01*
X179817144Y-42134627D02*
X178417144Y-42134627D01*
X182071066Y-63401298D02*
X180671066Y-63401298D01*
X181204400Y-63401298D02*
X181137733Y-63267965D01*
X181137733Y-63267965D02*
X181137733Y-63001298D01*
X181137733Y-63001298D02*
X181204400Y-62867965D01*
X181204400Y-62867965D02*
X181271066Y-62801298D01*
X181271066Y-62801298D02*
X181404400Y-62734632D01*
X181404400Y-62734632D02*
X181804400Y-62734632D01*
X181804400Y-62734632D02*
X181937733Y-62801298D01*
X181937733Y-62801298D02*
X182004400Y-62867965D01*
X182004400Y-62867965D02*
X182071066Y-63001298D01*
X182071066Y-63001298D02*
X182071066Y-63267965D01*
X182071066Y-63267965D02*
X182004400Y-63401298D01*
X181137733Y-62267965D02*
X182071066Y-61934631D01*
X181137733Y-61601298D02*
X182071066Y-61934631D01*
X182071066Y-61934631D02*
X182404400Y-62067965D01*
X182404400Y-62067965D02*
X182471066Y-62134631D01*
X182471066Y-62134631D02*
X182537733Y-62267965D01*
X180671066Y-60134631D02*
X182071066Y-59801297D01*
X182071066Y-59801297D02*
X181071066Y-59534631D01*
X181071066Y-59534631D02*
X182071066Y-59267964D01*
X182071066Y-59267964D02*
X180671066Y-58934631D01*
X181337733Y-58401297D02*
X181337733Y-57934631D01*
X182071066Y-57734631D02*
X182071066Y-58401297D01*
X182071066Y-58401297D02*
X180671066Y-58401297D01*
X180671066Y-58401297D02*
X180671066Y-57734631D01*
X181404400Y-56867964D02*
X182071066Y-56867964D01*
X180671066Y-57334630D02*
X181404400Y-56867964D01*
X181404400Y-56867964D02*
X180671066Y-56401297D01*
X181337733Y-54867963D02*
X181337733Y-54401297D01*
X182071066Y-54201297D02*
X182071066Y-54867963D01*
X182071066Y-54867963D02*
X180671066Y-54867963D01*
X180671066Y-54867963D02*
X180671066Y-54201297D01*
X182071066Y-53601296D02*
X180671066Y-53601296D01*
X180671066Y-53601296D02*
X182071066Y-52801296D01*
X182071066Y-52801296D02*
X180671066Y-52801296D01*
X180737733Y-51401296D02*
X180671066Y-51534629D01*
X180671066Y-51534629D02*
X180671066Y-51734629D01*
X180671066Y-51734629D02*
X180737733Y-51934629D01*
X180737733Y-51934629D02*
X180871066Y-52067963D01*
X180871066Y-52067963D02*
X181004400Y-52134629D01*
X181004400Y-52134629D02*
X181271066Y-52201296D01*
X181271066Y-52201296D02*
X181471066Y-52201296D01*
X181471066Y-52201296D02*
X181737733Y-52134629D01*
X181737733Y-52134629D02*
X181871066Y-52067963D01*
X181871066Y-52067963D02*
X182004400Y-51934629D01*
X182004400Y-51934629D02*
X182071066Y-51734629D01*
X182071066Y-51734629D02*
X182071066Y-51601296D01*
X182071066Y-51601296D02*
X182004400Y-51401296D01*
X182004400Y-51401296D02*
X181937733Y-51334629D01*
X181937733Y-51334629D02*
X181471066Y-51334629D01*
X181471066Y-51334629D02*
X181471066Y-51601296D01*
X182071066Y-50734629D02*
X180671066Y-50734629D01*
X182071066Y-50067962D02*
X180671066Y-50067962D01*
X180671066Y-50067962D02*
X182071066Y-49267962D01*
X182071066Y-49267962D02*
X180671066Y-49267962D01*
X181337733Y-48601295D02*
X181337733Y-48134629D01*
X182071066Y-47934629D02*
X182071066Y-48601295D01*
X182071066Y-48601295D02*
X180671066Y-48601295D01*
X180671066Y-48601295D02*
X180671066Y-47934629D01*
X181337733Y-47334628D02*
X181337733Y-46867962D01*
X182071066Y-46667962D02*
X182071066Y-47334628D01*
X182071066Y-47334628D02*
X180671066Y-47334628D01*
X180671066Y-47334628D02*
X180671066Y-46667962D01*
X182071066Y-45267961D02*
X181404400Y-45734628D01*
X182071066Y-46067961D02*
X180671066Y-46067961D01*
X180671066Y-46067961D02*
X180671066Y-45534628D01*
X180671066Y-45534628D02*
X180737733Y-45401295D01*
X180737733Y-45401295D02*
X180804400Y-45334628D01*
X180804400Y-45334628D02*
X180937733Y-45267961D01*
X180937733Y-45267961D02*
X181137733Y-45267961D01*
X181137733Y-45267961D02*
X181271066Y-45334628D01*
X181271066Y-45334628D02*
X181337733Y-45401295D01*
X181337733Y-45401295D02*
X181404400Y-45534628D01*
X181404400Y-45534628D02*
X181404400Y-46067961D01*
X182071066Y-44667961D02*
X180671066Y-44667961D01*
X182071066Y-44001294D02*
X180671066Y-44001294D01*
X180671066Y-44001294D02*
X182071066Y-43201294D01*
X182071066Y-43201294D02*
X180671066Y-43201294D01*
X180737733Y-41801294D02*
X180671066Y-41934627D01*
X180671066Y-41934627D02*
X180671066Y-42134627D01*
X180671066Y-42134627D02*
X180737733Y-42334627D01*
X180737733Y-42334627D02*
X180871066Y-42467961D01*
X180871066Y-42467961D02*
X181004400Y-42534627D01*
X181004400Y-42534627D02*
X181271066Y-42601294D01*
X181271066Y-42601294D02*
X181471066Y-42601294D01*
X181471066Y-42601294D02*
X181737733Y-42534627D01*
X181737733Y-42534627D02*
X181871066Y-42467961D01*
X181871066Y-42467961D02*
X182004400Y-42334627D01*
X182004400Y-42334627D02*
X182071066Y-42134627D01*
X182071066Y-42134627D02*
X182071066Y-42001294D01*
X182071066Y-42001294D02*
X182004400Y-41801294D01*
X182004400Y-41801294D02*
X181937733Y-41734627D01*
X181937733Y-41734627D02*
X181471066Y-41734627D01*
X181471066Y-41734627D02*
X181471066Y-42001294D01*
D11*
%TO.C,R23*%
X179800000Y-76200000D03*
X181800000Y-76200000D03*
%TD*%
%TO.C,R3*%
X161446000Y-71044000D03*
X163446000Y-71044000D03*
%TD*%
D12*
%TO.C,J2*%
X158000000Y-98000000D03*
X158000000Y-95460000D03*
X158000000Y-92920000D03*
X158000000Y-90380000D03*
X158000000Y-87840000D03*
X158000000Y-85300000D03*
X158000000Y-82760000D03*
%TD*%
D13*
%TO.C,R15*%
X170250000Y-45750000D03*
X170250000Y-47750000D03*
%TD*%
D14*
%TO.C,R9*%
X165748000Y-67472000D03*
X165748000Y-65472000D03*
%TD*%
D15*
%TO.C,C3*%
X162000000Y-49775000D03*
X162000000Y-52725000D03*
%TD*%
D13*
%TO.C,R8*%
X175000000Y-69500000D03*
X175000000Y-71500000D03*
%TD*%
D11*
%TO.C,R19*%
X179400000Y-95489489D03*
X181400000Y-95489489D03*
%TD*%
%TO.C,R17*%
X165250000Y-41750000D03*
X167250000Y-41750000D03*
%TD*%
%TO.C,R22*%
X179800000Y-78400000D03*
X181800000Y-78400000D03*
%TD*%
D12*
%TO.C,J1*%
X176300000Y-98000000D03*
X176300000Y-95460000D03*
X176300000Y-92920000D03*
X176300000Y-90380000D03*
X176300000Y-87840000D03*
X176300000Y-85300000D03*
X176300000Y-82760000D03*
%TD*%
D13*
%TO.C,R16*%
X170312000Y-49724000D03*
X170312000Y-51724000D03*
%TD*%
%TO.C,R5*%
X177500000Y-69500000D03*
X177500000Y-71500000D03*
%TD*%
D11*
%TO.C,R18*%
X179400000Y-98000000D03*
X181400000Y-98000000D03*
%TD*%
D13*
%TO.C,R4*%
X172750000Y-65500000D03*
X172750000Y-67500000D03*
%TD*%
D16*
%TO.C,C5*%
X169500000Y-41712500D03*
X169500000Y-43787500D03*
%TD*%
D17*
%TO.C,L1*%
X164398000Y-51740000D03*
X168098000Y-51740000D03*
%TD*%
D18*
%TO.C,U2*%
X167385500Y-48118000D03*
X167385500Y-47168000D03*
X167385500Y-46218000D03*
X165110500Y-46218000D03*
X165110500Y-47168000D03*
X165110500Y-48118000D03*
%TD*%
D11*
%TO.C,R20*%
X179400000Y-93000000D03*
X181400000Y-93000000D03*
%TD*%
D19*
%TO.C,U4*%
X152350000Y-42700000D03*
X152350000Y-47700000D03*
X152350000Y-52700000D03*
X152350000Y-57700000D03*
X152350000Y-62700000D03*
X152350000Y-67700000D03*
X152350000Y-72700000D03*
X152350000Y-77700000D03*
%TD*%
D20*
%TO.C,R13*%
X181800000Y-82800000D03*
X179800000Y-82800000D03*
%TD*%
D21*
%TO.C,C4*%
X162000000Y-47725000D03*
X162000000Y-44775000D03*
%TD*%
D11*
%TO.C,R6*%
X175250000Y-74000000D03*
X177250000Y-74000000D03*
%TD*%
D20*
%TO.C,R14*%
X163446000Y-75108000D03*
X161446000Y-75108000D03*
%TD*%
D22*
%TO.C,C1*%
X170341500Y-67996000D03*
X168266500Y-67996000D03*
%TD*%
D11*
%TO.C,R21*%
X179800000Y-80600000D03*
X181800000Y-80600000D03*
%TD*%
D23*
%TO.C,Q1*%
X177353500Y-67422000D03*
X177353500Y-65522000D03*
X175478500Y-66472000D03*
%TD*%
D24*
%TO.C,U1*%
X166829000Y-70155000D03*
X166829000Y-71425000D03*
X166829000Y-72695000D03*
X166829000Y-73965000D03*
X171779000Y-73965000D03*
X171779000Y-72695000D03*
X171779000Y-71425000D03*
X171779000Y-70155000D03*
%TD*%
D22*
%TO.C,C2*%
X170287500Y-65500000D03*
X168212500Y-65500000D03*
%TD*%
D25*
%TO.C,D1*%
X171800000Y-43687500D03*
X173700000Y-43687500D03*
X172750000Y-41812500D03*
%TD*%
D11*
%TO.C,R1*%
X161446000Y-69012000D03*
X163446000Y-69012000D03*
%TD*%
%TO.C,R7*%
X165248000Y-44120000D03*
X167248000Y-44120000D03*
%TD*%
%TO.C,R2*%
X161446000Y-73076000D03*
X163446000Y-73076000D03*
%TD*%
M02*
